# xmcd
# 
# Track frame offsets:
#     150
#     11153
#     25252
#     40540
#     51009
#     63452
#     86027
#     100343
#     116205
#     137824
#     152492
#     173280
#     185608
#     198350
# 
# Disc length: 2783
# 
# Revision: 3
# Processed by: cddbd v1.5.2PL0 Copyright (c) Steve Scherf et al.
# Submitted via: BonkEnc v1.0rc1
# 
DISCID=b40add0e
DTITLE=Various Artist - Brummi-Hits
DYEAR=2000
DGENRE=Country
TTITLE0=Roger Miller - King of the road
TTITLE1=Tom Astor - International airport (Frankfurt am Main)
TTITLE2=Die Nilsen Brothers - Tom Dooley II (Tom Dooley, du bist ein guter Mann)
TTITLE3=Ricky Nelson - Hello Mary Lou
TTITLE4=Bobby Bare - 500 Miles away from home
TTITLE5=Canned Heat - On the road again
TTITLE6=Gunter Gabriel - Hey, Boss, ich brauch' mehr Geld
TTITLE7=Henry Valentino and Uschi - Im Wagen vor mir
TTITLE8=Jonny Hill - Ruf Teddybär Eins-Vier
TTITLE9=Glen Campbell - Rhinestone cowboy
TTITLE10=Gunter Gabriel - Er ist ein Kerl (der 30 Tonner-Diesel)
TTITLE11=Tom Astor - Ich bin wieder auf der Autobahn
TTITLE12=Peter Kraus - Da fahr' ich lieber einen LKW
TTITLE13=Jonny Hill - König der Landstraße
EXTD=YEAR: 2000 ID3G: 2
EXTT0=
EXTT1=
EXTT2=
EXTT3=
EXTT4=
EXTT5=
EXTT6=
EXTT7=
EXTT8=
EXTT9=
EXTT10=
EXTT11=
EXTT12=
EXTT13=
PLAYORDER=
